# xmcd CD database file
#
# Track frame offsets:
#	225
#	19260
#	38393
#	50250
#	65959
#	87362
#	108516
#	122453
#	143418
#	172947
#	186494
#	205697
#	222800
#	240848
#	263238
#	274676
#	286079
#	299185
#
# Disc length: 4088 seconds
#
# Revision: 7
# Processed by: cddbd v1.5.2PL0 Copyright (c) Steve Scherf et al.
# Submitted via: CDex 1.50
#
DISCID=060ff512
DTITLE=Stefan Diestelmann - Folk Blues Best
DYEAR=1996
DGENRE=Blues
TTITLE0=Reichsbahnblues
TTITLE1=Ma Babe
TTITLE2=Blues für Kinder
TTITLE3=Key To The Highway
TTITLE4=Caldonia
TTITLE5=Blues für Memphis Slim
TTITLE6=Rockin' The House
TTITLE7=Stormy Monday Blues
TTITLE8=Bernies Blues
TTITLE9=Blues Geschichte
TTITLE10=Der Alte und die Kneipe
TTITLE11=Hof vom Prenzlauer Berg
TTITLE12=Blues von der guten Erziehung
TTITLE13=Bottleneck
TTITLE14=Django
TTITLE15=An 'nen Kumpel
TTITLE16=Blues vom "Blauen Club"
TTITLE17=Schlußliedchen
EXTD=YEAR: 1996
EXTT0=
EXTT1=
EXTT2=
EXTT3=
EXTT4=
EXTT5=
EXTT6=
EXTT7=
EXTT8=
EXTT9=
EXTT10=
EXTT11=
EXTT12=
EXTT13=
EXTT14=
EXTT15=
EXTT16=
EXTT17=
PLAYORDER=
